<svg xmlns="http://www.w3.org/2000/svg" viewBox="0 0 64 64">
  <rect width="64" height="64" rx="14" fill="#fff"/>
  <path d="M10.5 51V8.5l4.7 3.7 4.8-3.7 4.7 3.7 4.8-3.7 4.7 3.7 4.8-3.7 4.8 3.7 4.2-3.7V51H10.5Z" fill="#fff" stroke="#102f60" stroke-width="3.5" stroke-linejoin="round"/>
  <path d="M18.5 24.5h8m-4-4v8m13-4h6.5M18.5 36l7 7m0-7-7 7m17-4h6.5m-6.5 5h6.5" fill="none" stroke="#009e73" stroke-width="3.4" stroke-linecap="round"/>
  <path d="M17.5 32h25.5M30.3 17.8v29.5" fill="none" stroke="#dce5ec" stroke-width="1.7"/>
  <circle cx="49" cy="47" r="12" fill="#009e73" stroke="#fff" stroke-width="2"/>
  <path d="m43.6 47 3.5 3.7 7.4-8" fill="none" stroke="#fff" stroke-width="3" stroke-linecap="round" stroke-linejoin="round"/>
</svg>
