<svg xmlns="http://www.w3.org/2000/svg">
  <symbol id="brand" viewBox="0 0 24 24" fill="none" stroke="currentColor" stroke-width="1.7" stroke-linecap="round" stroke-linejoin="round">
    <path d="M6 3.5h12a2.5 2.5 0 0 1 2.5 2.5v12a2.5 2.5 0 0 1-2.5 2.5H6A2.5 2.5 0 0 1 3.5 18V6A2.5 2.5 0 0 1 6 3.5Z"/>
    <path d="M8 8.5h8M8 12h8M8 15.5h5"/>
  </symbol>
  <symbol id="loan" viewBox="0 0 24 24" fill="none" stroke="currentColor" stroke-width="1.7" stroke-linecap="round" stroke-linejoin="round">
    <rect x="3.5" y="5.5" width="13" height="10" rx="2"/>
    <path d="M6.5 9.5h7M6.5 12h4M17 11.5c2 0 3.5 1 3.5 2.2S19 16 17 16s-3.5-1-3.5-2.3S15 11.5 17 11.5Z"/>
    <path d="M13.5 13.7v4.6c0 1.2 1.5 2.2 3.5 2.2s3.5-1 3.5-2.2v-4.6"/>
  </symbol>
  <symbol id="vat" viewBox="0 0 24 24" fill="none" stroke="currentColor" stroke-width="1.7" stroke-linecap="round" stroke-linejoin="round">
    <path d="M6 3.5h8l4 4V13"/>
    <path d="M6 3.5v17h7"/>
    <path d="M14 3.5v5h5"/>
    <path d="M8.5 11h5M8.5 14h3"/>
    <circle cx="17.5" cy="17.5" r="3.5"/>
    <path d="m16.3 18.7 2.4-2.4M16.4 16.3h.1M18.5 18.7h.1"/>
  </symbol>
  <symbol id="salary" viewBox="0 0 24 24" fill="none" stroke="currentColor" stroke-width="1.7" stroke-linecap="round" stroke-linejoin="round">
    <path d="M6 3.5h8l4 4V13"/>
    <path d="M6 3.5v17h8"/>
    <path d="M14 3.5v5h4"/>
    <path d="M8.5 11h6M8.5 14h4"/>
    <circle cx="17.5" cy="17.5" r="3.5"/>
    <path d="M16 16.5h3M16 18.5h3M16.8 15.5l.7 4M18.2 15.5l-.7 4"/>
  </symbol>
  <symbol id="severance" viewBox="0 0 24 24" fill="none" stroke="currentColor" stroke-width="1.7" stroke-linecap="round" stroke-linejoin="round">
    <rect x="4" y="5" width="16" height="15" rx="2"/>
    <path d="M8 3.5v4M16 3.5v4M4 9h16M8 12h3M8 15h3"/>
    <circle cx="17" cy="16.5" r="3"/>
    <path d="M16 16h2M16 17.5h2"/>
  </symbol>
  <symbol id="guide" viewBox="0 0 24 24" fill="none" stroke="currentColor" stroke-width="1.7" stroke-linecap="round" stroke-linejoin="round">
    <path d="M6 3.5h12v17H6z"/>
    <path d="M9 8h6M9 11h6M9 14h3M13.5 16.5l1.5 1.5 3-3"/>
  </symbol>
  <symbol id="shield" viewBox="0 0 24 24" fill="none" stroke="currentColor" stroke-width="1.7" stroke-linecap="round" stroke-linejoin="round">
    <path d="M12 3.5 19 6v5.5c0 4.3-2.7 7.5-7 9-4.3-1.5-7-4.7-7-9V6l7-2.5Z"/>
    <path d="m9 12 2 2 4-4"/>
  </symbol>
  <symbol id="browser" viewBox="0 0 24 24" fill="none" stroke="currentColor" stroke-width="1.7" stroke-linecap="round" stroke-linejoin="round">
    <circle cx="12" cy="12" r="8.5"/>
    <path d="M3.5 12h17M12 3.5a13 13 0 0 1 0 17M12 3.5a13 13 0 0 0 0 17"/>
  </symbol>
  <symbol id="info" viewBox="0 0 24 24" fill="none" stroke="currentColor" stroke-width="1.7" stroke-linecap="round" stroke-linejoin="round">
    <circle cx="12" cy="12" r="8.5"/>
    <path d="M12 11v5M12 8.2h.1"/>
  </symbol>
</svg>
