<svg xmlns="http://www.w3.org/2000/svg" viewBox="0 0 64 64" role="img" aria-label="생활금융 계산소 로고">
  <defs>
    <linearGradient id="checkBg" x1="0" y1="0" x2="1" y2="1">
      <stop stop-color="#18ba8d"/>
      <stop offset="1" stop-color="#009e73"/>
    </linearGradient>
  </defs>
  <path fill="#fff" d="M10.5 8.5h38v42h-38z"/>
  <path d="M10.5 51V8.5l4.7 3.7 4.8-3.7 4.7 3.7 4.8-3.7 4.7 3.7 4.8-3.7 4.8 3.7 4.2-3.7V51H10.5Z" fill="#fff" stroke="#102f60" stroke-width="3.5" stroke-linejoin="round"/>
  <path d="M18.5 24.5h8m-4-4v8m13-4h6.5M18.5 36l7 7m0-7-7 7m17-4h6.5m-6.5 5h6.5" fill="none" stroke="#009e73" stroke-width="3.4" stroke-linecap="round"/>
  <path d="M17.5 32h25.5" fill="none" stroke="#dce5ec" stroke-width="1.7"/>
  <path d="M30.3 17.8v29.5" fill="none" stroke="#dce5ec" stroke-width="1.7"/>
  <circle cx="49" cy="47" r="12" fill="url(#checkBg)" stroke="#fff" stroke-width="2"/>
  <path d="m43.6 47 3.5 3.7 7.4-8" fill="none" stroke="#fff" stroke-width="3" stroke-linecap="round" stroke-linejoin="round"/>
</svg>
